<svg width="173" height="156" viewBox="0 0 173 156" fill="none" xmlns="http://www.w3.org/2000/svg">
<path d="M128.842 142.504C128.462 142.472 128.116 142.449 127.768 142.414C121.281 141.742 114.785 141.743 108.266 141.972C105.689 142.061 103.098 141.69 100.511 141.593C100.029 141.576 99.4814 141.773 99.0588 142.011C98.3126 142.429 97.6394 142.453 96.8712 142.077C96.4376 141.865 95.929 141.719 95.4383 141.677C91.1321 141.316 86.9013 141.997 82.6865 142.591C78.7444 143.15 74.8048 142.92 70.8606 142.979C69.9875 142.993 69.1085 142.961 68.2379 143.022C64.3984 143.281 60.5677 143.664 56.7229 143.802C53.7203 143.91 50.703 143.677 47.6916 143.697C45.7858 143.709 43.8838 143.893 41.9796 144.029C39.3852 144.214 36.7985 144.325 34.3332 143.364C32.4369 142.624 32.2855 141.52 33.8391 140.264C34.0779 140.069 34.1703 139.662 34.2106 139.34C35.1961 131.324 35.3482 123.318 34.3714 115.27C33.9054 111.412 34.1793 107.473 34.2094 103.569C34.2637 96.9969 34.5157 90.4223 34.4336 83.8522C34.3899 80.523 33.8516 77.1913 33.4302 73.8727C33.1509 71.6799 34.0261 70.672 36.4694 70.5946C37.5669 70.56 38.6659 70.4769 39.7534 70.3311C41.7902 70.0572 43.7948 70.0956 45.8458 70.31C49.5935 70.696 53.3425 70.5139 57.0674 69.9043C58.3297 69.6985 59.6321 69.6941 61.0383 69.5881C61.0278 69.6197 61.1055 69.4931 61.1191 69.3611C61.6032 64.394 61.7478 59.4147 61.8427 54.4312C61.8965 51.6169 62.0903 48.8013 62.216 45.9865C62.2812 44.5209 62.3752 43.0544 62.3686 41.5892C62.3592 39.2145 63.6447 38.1923 66.2108 38.5246C67.1594 38.6464 68.1408 38.6249 69.1015 38.5951C73.9559 38.4408 78.8116 38.3093 83.6604 38.0701C85.5279 37.9768 87.3772 37.6092 89.2367 37.3854C89.9994 37.2935 90.7713 37.2511 91.618 37.1793C91.3799 35.0387 91.0828 32.9483 90.93 30.8506C90.7534 28.4261 90.6138 25.9917 90.6139 23.5593C90.6154 20.2438 90.7389 16.9287 90.8514 13.6159C90.9652 10.1506 91.3861 9.6176 95.1372 9.03292C100.918 8.13479 106.72 7.34882 112.627 7.88035C114.034 8.00821 115.485 7.74359 116.897 7.86209C119.044 8.04239 121.243 8.18149 123.296 8.72727C126.197 9.49691 128.024 11.3228 128.523 14.1673C128.93 16.5105 129.798 18.8046 129.986 21.1553C130.346 25.6542 130.578 30.1812 130.489 34.6911C130.358 41.2401 130.528 47.7656 130.831 54.3121C131.187 62.0159 130.891 69.7461 130.901 77.4663C130.91 83.3938 130.803 89.3278 131.041 95.2518C131.162 98.2529 132.107 101.219 132.367 104.226C132.788 109.11 132.978 114.01 133.212 118.904C133.425 123.299 133.717 127.702 133.693 132.1C133.67 135.969 133.256 139.838 133.019 143.705C132.986 144.232 133.013 144.767 132.934 145.286C132.775 146.338 131.979 147.002 130.949 147.003C129.869 147.007 129.03 146.309 128.93 145.226C128.848 144.355 128.875 143.474 128.849 142.508L128.842 142.504ZM129.315 137.893C129.255 133.465 129.215 129.305 129.131 125.144C129.103 123.648 128.981 122.153 128.899 120.659C128.606 115.328 128.415 109.989 127.989 104.663C127.733 101.482 126.842 98.332 126.715 95.1517C126.51 89.8767 126.686 84.5916 126.708 79.3097C126.741 71.4145 127.012 63.5132 126.746 55.6287C126.509 48.6461 126.178 41.6718 126.48 34.6858C126.755 28.3015 126.305 21.9603 125.134 15.6592C124.744 13.5675 123.573 12.3618 121.278 12.0457C119.782 11.839 118.252 11.7949 116.737 11.7717C115.316 11.7466 113.88 11.9606 112.466 11.8646C107.06 11.4984 101.732 12.2008 96.3926 12.7496C95.5843 12.8311 95.3356 13.0863 95.3293 13.8424C95.299 17.7142 95.1866 21.5823 95.1169 25.454C95.098 26.5403 95.1114 27.6261 95.1284 28.7122C95.1747 32.2591 95.3176 35.8077 95.2563 39.3553C95.1974 42.7051 95.1654 46.0376 95.6281 49.3727C96.1189 52.9212 96.7385 56.4741 96.9011 60.0405C97.185 66.2541 97.0983 72.4788 97.2813 78.697C97.5821 89.0201 97.9514 99.3393 98.3385 109.66C98.6656 118.339 99.0612 127.014 99.4138 135.688C99.4322 136.17 99.4458 136.49 100.153 136.549C104.412 136.92 108.667 137.085 112.956 137.023C116.634 136.968 120.322 137.271 124.001 137.457C125.671 137.542 127.337 137.727 129.307 137.892L129.315 137.893ZM94.4286 136.588C94.4444 136.262 94.4751 136.034 94.4628 135.805C94.2096 130.442 93.8809 125.078 93.7211 119.713C93.5791 114.905 93.6026 110.091 93.5939 105.277C93.587 102.078 93.7667 98.8776 93.6661 95.6833C93.3663 85.9415 92.9691 76.2046 92.6188 66.4651C92.519 63.6801 92.589 60.8833 92.3261 58.1139C91.8246 52.827 91.1459 47.5545 90.5325 42.2745C90.5218 42.1697 90.4532 42.0697 90.3787 41.8881C89.5878 42.0101 88.8311 42.1479 88.0681 42.243C86.6581 42.4202 85.2522 42.6626 83.8326 42.7253C78.6258 42.9572 73.4144 43.1303 68.2059 43.31C67.7234 43.328 67.4349 43.3785 67.3971 43.9176C67.2476 46.0257 67.0516 48.1331 66.8591 50.2409C66.2053 57.3728 65.5337 64.5032 64.9016 71.6336C64.7664 73.1518 64.7485 74.6799 64.7093 76.2062C64.6914 76.9354 64.8481 77.676 64.0434 78.2093C63.8817 78.3158 63.8784 78.6955 63.8958 78.9438C64.014 80.6132 64.1105 82.284 64.3011 83.9465C65.0214 90.3105 66.0308 96.6532 66.4481 103.034C66.8762 109.588 66.7953 116.173 66.8305 122.746C66.8572 127.733 66.7154 132.719 66.649 137.705C66.6475 137.789 66.6893 137.871 66.697 137.901C68.5649 137.908 70.41 137.962 72.248 137.912C75.3485 137.828 78.4543 137.761 81.5477 137.537C84.7096 137.308 87.8495 136.877 91.0061 136.596C92.1209 136.498 93.2562 136.584 94.429 136.585L94.4286 136.588ZM59.3879 73.6226C58.9358 73.6594 58.6128 73.6615 58.3019 73.7198C53.4325 74.6101 48.5517 74.707 43.607 74.2074C41.8253 74.0254 39.9682 74.4346 38.1102 74.5741C38.1337 74.9366 38.1303 75.1084 38.1593 75.2797C39.0916 80.8755 39.1669 86.5033 38.893 92.144C38.6129 97.9498 38.29 103.752 38.0099 109.558C37.9221 111.346 37.8013 113.142 37.8932 114.926C38.3173 123.048 37.8461 131.121 36.4289 139.15C36.3925 139.364 36.4022 139.583 36.3845 139.893C38.2431 139.643 39.9983 139.388 41.7598 139.175C43.169 139.004 44.5875 138.779 46.0035 138.752C51.215 138.647 56.4252 138.591 61.6355 138.567C62.4895 138.564 62.7663 138.314 62.7784 137.572C62.8084 135.752 62.9639 133.934 62.9506 132.117C62.9224 127.978 62.7042 123.838 62.7795 119.704C62.9531 109.823 62.3473 99.9877 60.9768 90.195C60.2743 85.1868 59.4952 80.1917 59.5593 75.1244C59.5638 74.6636 59.4574 74.2 59.3879 73.6226Z" fill="black"/>
</svg>
