<svg width="138" height="139" viewBox="0 0 138 139" fill="none" xmlns="http://www.w3.org/2000/svg">
<path d="M83.3443 122.432C80.6955 123.402 77.9788 123.532 75.2855 123.678C72.9803 123.801 70.6644 123.787 68.3549 123.714C66.9574 123.671 65.5704 123.385 64.175 123.244C63.297 123.154 62.4126 123.131 61.5304 123.071C61.1847 123.047 61.0448 123.184 61.0617 123.543C61.0829 124.007 61.0766 124.474 61.0617 124.94C61.0532 125.243 61.1784 125.359 61.471 125.348C61.7022 125.339 61.9333 125.369 62.1645 125.367C64.1177 125.354 66.0094 125.726 67.9287 126.076C70.2615 126.504 72.6685 126.525 75.0459 126.704C75.4276 126.734 75.8178 126.636 76.1995 126.666C78.6087 126.856 80.9288 126.111 83.3061 125.991C83.6497 125.974 83.9996 125.794 84.3198 125.634C84.867 125.359 85.4099 125.384 85.7619 125.752C86.131 126.138 86.1458 126.713 85.7895 127.249C85.412 127.815 84.9179 128.24 84.2456 128.396C83.5903 128.548 82.9265 128.661 82.2648 128.781C81.4908 128.922 80.7125 129.056 79.9384 129.193C79.4464 129.278 78.9565 129.419 78.4602 129.441C75.1116 129.58 71.7608 129.676 68.4334 129.12C68.111 129.067 67.776 129.048 67.4685 128.947C65.581 128.319 63.6299 128.161 61.6619 128.127C61.278 128.121 60.8921 128.127 60.5103 128.163C59.1976 128.292 58.4299 127.683 58.3705 126.346C58.3238 125.301 58.3599 124.252 58.4002 123.206C58.415 122.838 58.3514 122.597 58.0185 122.394C57.5477 122.105 57.2486 121.674 57.3483 121.08C57.4416 120.516 57.8297 120.245 58.3535 120.083C58.5062 120.036 58.6844 119.771 58.695 119.598C58.7989 118.01 58.871 116.421 58.9452 114.834C58.9495 114.723 58.9452 114.588 58.888 114.499C57.6664 112.514 57.5901 110.274 57.4522 108.048C57.2932 105.493 57.2126 102.934 56.9814 100.385C56.7715 98.0657 56.3622 95.7758 55.4184 93.614C54.8268 92.2576 54.0188 91.0785 52.8693 90.1407C51.0455 88.6497 49.3001 87.0519 47.3957 85.6741C43.1097 82.5725 40.8341 78.2875 39.7822 73.2036C38.1196 65.1718 38.9955 57.3494 41.6591 49.6722C41.8669 49.0699 42.0875 48.4504 42.4268 47.9185C44.011 45.4214 45.6206 42.9392 47.2663 40.4827C47.6375 39.9295 48.1464 39.4424 48.6724 39.028C52.4558 36.0546 56.4385 33.3844 61.0808 31.9896C65.95 30.5242 70.9422 29.9218 75.9684 31.0134C79.8833 31.8635 83.5309 33.5041 87.0726 35.3774C88.6737 36.2255 90.2876 37.05 91.9333 37.8062C95.1674 39.2908 97.7992 41.4333 99.7652 44.4601C101.551 47.2114 103.084 50.0397 103.75 53.2951C104.185 55.4248 103.86 57.4989 103.481 59.5859C102.401 65.4901 100.505 71.1209 97.5342 76.318C95.5491 79.7913 93.3266 83.1365 91.0765 86.4453C89.2612 89.1154 87.6409 91.8731 86.4491 94.8765C85.1809 98.0742 84.6273 101.37 84.9179 104.837C85.1787 107.964 85.2296 111.111 85.3908 114.249C85.4014 114.452 85.5117 114.689 85.6517 114.841C86.2115 115.451 86.1882 116.047 85.6071 116.613C85.4269 116.789 85.2933 117.086 85.2678 117.34C85.0812 119.173 84.9476 121.01 84.7461 122.84C84.6973 123.287 84.5107 123.742 84.2902 124.139C84.1947 124.31 83.8533 124.34 83.6242 124.436C83.5649 124.227 83.4737 124.021 83.4503 123.81C83.3994 123.351 83.3804 122.887 83.3507 122.437L83.3443 122.432ZM82.9138 114.309C82.9138 113.666 82.9435 113.127 82.9096 112.591C82.742 109.998 82.5914 107.4 82.373 104.812C82.0464 100.926 82.8247 97.2476 84.322 93.6974C85.6135 90.632 87.2995 87.7996 89.1827 85.0611C91.331 81.9381 93.4369 78.7745 95.3562 75.5063C98.3973 70.3305 100.172 64.6762 101.29 58.7742C101.882 55.6491 101.462 52.7418 100.064 49.967C99.2816 48.4162 98.3273 46.953 97.4005 45.4812C95.7867 42.9179 93.4623 41.2261 90.7287 40.032C89.0703 39.3079 87.4564 38.4791 85.8001 37.7442C83.6179 36.7766 81.425 35.8239 79.2152 34.9224C73.5953 32.6261 67.8841 33.017 62.2027 34.5764C57.7809 35.7897 54.0463 38.3616 50.4538 41.1342C50.0911 41.4141 49.737 41.7494 49.4889 42.1318C47.8962 44.5776 46.312 47.0277 44.7766 49.512C44.4182 50.0931 44.2231 50.7916 44.0195 51.4559C41.9475 58.1974 41.2392 65.0266 42.6813 72.0095C43.6187 76.5508 45.5146 80.4556 49.3404 83.2732C51.0773 84.5527 52.636 86.0757 54.3347 87.4108C56.9199 89.4401 58.3557 92.1679 59.1976 95.2653C60.0925 98.5591 60.3386 101.943 60.5061 105.339C60.6058 107.368 60.786 109.4 61.0342 111.416C61.189 112.668 61.3798 112.754 62.6183 112.901C62.7138 112.912 62.8092 112.918 62.9068 112.927C64.4782 113.068 66.0476 113.251 67.6233 113.337C68.8809 113.405 70.147 113.35 71.4342 113.35C70.8786 111.07 70.8383 108.761 70.7386 106.456C70.6411 104.19 70.5244 101.924 70.4205 99.6571C70.3357 97.7795 70.2085 95.9018 70.1915 94.022C70.1682 91.3861 70.2742 88.748 70.2339 86.112C70.2191 85.0953 70.5393 84.4672 71.4682 84.0742C74.0852 82.9698 75.5739 80.917 76.2674 78.1999C76.8633 75.863 76.4816 73.7419 74.9695 71.8514C74.8444 71.6933 74.6938 71.5566 74.5305 71.3857C74.3672 71.6207 74.2612 71.8087 74.1212 71.9646C73.4383 72.7229 72.8212 73.5667 72.0408 74.2033C70.7323 75.2735 69.076 75.2649 67.6721 74.3571C65.88 73.1972 65.6192 70.6082 67.2076 69.1877C68.5628 67.9744 70.1703 67.3998 72.0068 67.6646C73.4935 67.8783 73.4935 67.8889 73.8922 66.4086C73.9325 66.2591 73.9643 66.1074 73.9982 65.9558C74.3503 64.3815 74.1212 62.8328 73.818 61.282C73.7183 60.7714 73.6356 60.2481 73.625 59.729C73.6144 59.2334 73.8434 58.8212 74.3566 58.6588C74.8868 58.4922 75.311 58.6951 75.6163 59.1245C75.8051 59.3894 75.962 59.6884 76.0744 59.9939C77.1645 62.978 77.2302 65.9472 75.8687 68.8715C75.699 69.239 75.699 69.4718 75.9959 69.7815C76.9354 70.7556 77.6098 71.9005 77.964 73.2228C78.6341 75.7199 78.1803 78.0867 77.2323 80.4279C76.4328 82.3995 75.0968 83.8051 73.2093 84.715C72.8106 84.9073 72.431 85.1487 72.0174 85.3025C71.6357 85.4434 71.5933 85.6571 71.6824 86.0117C71.9623 87.1182 72.3292 88.2161 72.4628 89.3397C72.8382 92.5353 73.0736 95.748 73.4383 98.9436C73.9452 103.389 73.6483 107.815 73.2348 112.243C73.1945 112.681 73.1754 113.121 73.1457 113.563C76.3925 114.424 79.6479 114.027 82.9096 114.302L82.9138 114.309ZM61.225 120.076C61.9588 120.123 62.6523 120.123 63.3352 120.219C65.352 120.501 67.3285 121.022 69.3941 120.99C73.1266 120.933 76.8591 120.978 80.5916 120.937C81.3487 120.928 82.1016 120.717 82.8587 120.617C83.181 120.574 83.2616 120.416 83.2404 120.106C83.1831 119.275 83.1322 118.442 83.1216 117.607C83.1153 117.175 82.9647 117.049 82.5405 117.051C80.8843 117.064 79.228 117.088 77.5738 117.015C76.2313 116.957 74.8953 116.765 73.5571 116.639C72.4692 116.537 71.3812 116.417 70.289 116.346C68.9466 116.259 67.6 116.231 66.2554 116.139C64.4973 116.02 62.7435 115.862 60.9748 115.721C61.0575 117.148 61.1402 118.592 61.225 120.074V120.076ZM72.1659 70.1767C71.0758 69.7409 69.5574 70.1511 68.9657 70.9308C68.6391 71.3622 68.7367 71.9198 69.2435 72.0629C69.5956 72.1611 70.1236 72.1932 70.3675 71.9967C71.0122 71.4797 71.5445 70.8218 72.1638 70.1767H72.1659Z" fill="black"/>
<path d="M85.1875 27.3759C85.2278 25.6905 85.5565 24.3191 86.074 22.9948C87.3549 19.7158 88.6485 16.4412 89.9464 13.1665C90.1097 12.7543 90.2942 12.3399 90.5424 11.9767C90.7544 11.6649 91.0301 11.3594 91.3482 11.1693C92.2093 10.6523 93.1169 11.1415 93.1636 12.1498C93.1827 12.5642 93.0894 12.9978 92.9791 13.4036C92.152 16.4967 91.0577 19.4851 89.6813 22.3838C88.9221 23.9816 88.4577 25.7161 87.8193 27.3738C87.5733 28.0125 87.2701 28.649 86.8756 29.2044C86.7144 29.433 86.2097 29.5825 85.9298 29.5077C85.6859 29.4415 85.4484 29.0335 85.3699 28.7345C85.2342 28.2154 85.2214 27.6643 85.1875 27.3759Z" fill="black"/>
<path d="M29.6749 101.998C30.519 101.432 31.4648 100.802 32.4064 100.168C33.9291 99.1402 35.596 98.4588 37.3859 98.0893C37.8122 98.0017 38.2682 97.9931 38.7029 98.0295C39.214 98.0722 39.6254 98.3392 39.776 98.8647C39.9308 99.4008 39.7696 99.8708 39.3434 100.219C39.108 100.413 38.8408 100.586 38.5608 100.704C36.2577 101.674 34.1433 102.964 32.118 104.423C31.4012 104.94 30.6229 105.378 29.8382 105.786C29.4395 105.993 28.9709 106.14 28.5234 106.17C27.0707 106.266 26.11 104.931 26.6105 103.556C27.0007 102.481 27.8766 101.983 28.8987 101.719C29.0896 101.669 29.3462 101.872 29.6728 101.998H29.6749Z" fill="black"/>
<path d="M117.828 18.3955C118.127 18.5899 118.549 18.7181 118.67 18.9851C118.793 19.2542 118.716 19.7199 118.553 19.9933C118.333 20.3607 117.972 20.6641 117.62 20.9268C114.859 22.9753 112.157 25.0943 109.665 27.4761C108.522 28.5698 107.211 29.405 105.725 29.9561C105.228 30.1398 104.739 30.2787 104.346 29.813C103.943 29.3345 104.102 28.8047 104.406 28.3583C104.639 28.0122 104.963 27.7217 105.277 27.4419C106.386 26.455 107.553 25.528 108.617 24.4962C110.882 22.3003 113.357 20.4184 116.182 19.0193C116.676 18.7757 117.215 18.6262 117.826 18.3976L117.828 18.3955Z" fill="black"/>
<path d="M15.4066 77.6876C14.9464 77.6876 14.482 77.7303 14.026 77.6791C13.1671 77.5829 12.6327 77.0703 12.5712 76.3589C12.5097 75.6562 12.9423 75.0153 13.7758 74.8039C14.5732 74.6009 15.3981 74.4813 16.2189 74.4108C18.3438 74.2292 20.4731 74.0391 22.6044 73.9665C24.0465 73.9174 25.4207 73.597 26.795 73.236C27.2933 73.1035 27.7196 73.1505 28.0123 73.6076C28.324 74.0989 28.2265 74.5881 27.8702 75.0025C27.1852 75.8014 26.303 76.3461 25.3083 76.6025C24.3095 76.8609 23.2746 77.0126 22.246 77.1194C19.9704 77.3565 17.6885 77.5359 15.4109 77.7389V77.6897L15.4066 77.6876Z" fill="black"/>
<path d="M33.1423 37.5776C29.9336 36.8556 26.5129 36.8855 23.442 35.324C22.7379 34.9672 21.9936 34.6938 21.281 34.3499C20.9926 34.2111 20.6999 34.0252 20.49 33.786C19.9619 33.1836 20.21 32.3121 20.9883 32.1433C21.4401 32.045 21.9469 32.0835 22.4071 32.1796C23.0455 32.3099 23.6796 32.5022 24.2797 32.7564C25.9254 33.4485 27.6369 33.8479 29.3801 34.2025C30.9961 34.5293 32.5782 35.0441 34.1708 35.4842C34.6395 35.6145 34.964 35.8986 34.9534 36.4283C34.9428 36.9453 34.6204 37.2443 34.1645 37.3853C33.857 37.4814 33.5283 37.5071 33.1423 37.5776Z" fill="black"/>
<path d="M58.9837 22.3452C58.9328 22.5097 58.8968 22.8557 58.7314 23.1185C58.3666 23.6931 57.5692 23.55 57.2744 22.8622C56.8694 21.9201 56.4898 20.9696 56.1059 20.0169C55.1028 17.5219 54.0976 15.0269 53.1093 12.5255C52.9396 12.0983 52.7594 11.6348 52.7679 11.1905C52.7742 10.838 52.9842 10.4001 53.2493 10.1673C53.6098 9.84901 54.0636 10.0519 54.403 10.3403C54.6193 10.524 54.8207 10.7483 54.9671 10.994C56.9478 14.3199 58.1906 17.9256 58.9244 21.7193C58.9541 21.871 58.9541 22.0269 58.9837 22.3452Z" fill="black"/>
<path d="M115.542 61.4144C117.138 61.1816 118.731 60.9167 120.332 60.7266C121.382 60.6027 122.442 60.5685 123.499 60.53C123.857 60.5172 124.23 60.577 124.578 60.6753C125.093 60.8206 125.46 61.1581 125.539 61.7199C125.621 62.3073 125.363 62.7644 124.862 63.0186C124.457 63.2237 124.005 63.4052 123.56 63.448C121.397 63.6594 119.23 63.8389 117.062 63.9884C116.048 64.0589 115.06 63.8688 114.182 63.3177C113.684 63.0058 113.137 62.5999 113.3 61.9527C113.457 61.3247 114.148 61.4016 114.666 61.3268C114.948 61.2862 115.243 61.3204 115.531 61.3204L115.544 61.4123L115.542 61.4144Z" fill="black"/>
<path d="M119.821 93.8662C119.301 93.6954 118.873 93.6206 118.506 93.4262C116.769 92.5077 115.007 91.6276 113.342 90.5916C112.375 89.9892 111.548 89.1476 110.708 88.3594C110.142 87.8296 109.904 87.0969 109.807 86.3301C109.741 85.8089 109.987 85.6102 110.441 85.8537C111.067 86.1891 111.671 86.5608 112.275 86.9346C113.518 87.7057 114.752 88.4918 115.991 89.2694C117.149 89.9956 118.322 90.7005 119.463 91.4525C119.827 91.6917 120.171 92.0078 120.417 92.3646C120.591 92.6166 120.724 93.0609 120.616 93.3002C120.495 93.5672 120.08 93.6975 119.823 93.8662H119.821Z" fill="black"/>
</svg>
