<svg width="80" height="67" viewBox="0 0 80 67" fill="none" xmlns="http://www.w3.org/2000/svg">
<path d="M43.0417 1.53954C49.4722 1.32287 55.8334 1.78329 61.9584 3.90933C65.3195 5.07392 68.2639 6.84787 70.0834 9.93537C72.4167 14.4447 72.7778 19.3468 72.375 22.4072C71.8056 26.6864 71.1667 31.0468 69.8195 35.1364C66.8056 44.277 59.7361 49.5177 50.6945 52.4291C48.0417 53.2822 45.2222 53.6614 42.4722 54.2031C41.7222 54.352 38.3334 55.1645 37.9167 53.377C37.5695 52.05 39.0695 51.9687 39.8056 51.6979C42.125 50.8718 44.5417 50.3031 46.8889 49.5312C47.6945 49.2604 49.7084 48.6375 49.5972 46.9854C49.5695 46.6468 48.875 46.3083 48.4584 46.2947C47.1389 46.2406 45.8195 46.227 44.5139 46.376C35.8056 47.3104 27.4306 46.6875 19.8195 41.8666C17.4861 40.377 14.8056 39.3343 12.6806 37.601C7.94447 33.7552 6.98613 28.6229 7.76391 22.8406C8.7778 15.3656 13.4306 10.7343 19.6945 7.11871C26.5 3.19162 33.9584 1.82392 41.7222 1.53954C42.1528 1.526 42.5972 1.53954 43.0417 1.53954ZM47.6528 51.2375C53.125 49.7479 57.6389 47.5135 61.5139 44.0875C64.5139 41.4468 67.375 38.7385 68.6528 34.7979C70.1945 30.0447 70.9028 25.1562 70.9167 20.2135C70.9167 17.6947 70.5 15.027 69.5834 12.6708C68.1945 9.08225 64.9722 7.14579 61.4028 5.83225C54.5417 3.32704 47.4584 2.75829 40.2222 3.6385C34.3889 4.34267 28.6528 5.39891 23.3889 8.12079C15.3334 12.2781 9.63891 17.9656 9.61113 27.5802C9.59725 31.4395 10.9445 34.7708 14.1111 36.802C17.5278 38.9822 21.3334 40.675 25.1667 42.0968C31.0417 44.3041 37.2361 45.0354 43.5417 44.6833C45.2917 44.5885 47.0834 44.3854 48.7778 44.6562C51.2778 45.0625 51.9167 47.5135 50.1111 49.2739C49.4722 49.8968 48.7361 50.3843 47.6528 51.2375Z" fill="black"/>
<path d="M25.2917 22.3938C26.7917 19.7938 29.3195 20.7824 30.5695 22.6917C32.2223 25.224 30.8195 30.3969 28.1806 31.9272C26.8611 32.699 25.1667 32.3199 24.3611 30.8709C23.8334 29.9094 22.875 26.5782 25.2917 22.3938ZM28.1111 22.5834C26.7639 22.5834 25.8473 27.0115 26.0834 29.5167C26.125 29.9772 26.5278 30.6272 26.9167 30.7626C27.25 30.8844 29.0417 30.8574 29.5 27.0928C29.6667 25.549 29.9167 22.5834 28.1111 22.5834Z" fill="black"/>
<path d="M36.3889 20.9312C36.5417 20.4979 36.7223 19.7802 37.3334 19.7802C38.1389 19.7802 38 20.6875 37.9167 21.0531C37.3473 23.9239 36.75 26.7948 35.9862 29.625C35.7639 30.4375 35.1112 31.5479 34 31.0604C33.4167 30.8031 32.9306 29.7333 32.8889 29.0021C32.7639 26.5916 32.7917 24.1677 32.9167 21.7573C32.9445 21.2562 33.0834 20.1594 34.0417 20.3083C34.8195 20.3354 34.8612 21.2562 34.9306 21.7708C35.0695 22.8812 34.9445 25.0479 34.9445 26.1854C35.0139 26.2125 35.9167 22.3396 36.3889 20.9312Z" fill="black"/>
<path d="M18.5278 33.322C19.5834 33.3762 21.6945 32.9023 21.6806 33.471C21.8334 35.2314 18.4723 35.2585 17.375 34.92C16.2084 34.5543 16.0278 33.6335 16.125 32.5773C16.4306 29.5304 16.6945 26.47 17.0417 23.4231C17.1389 22.57 17.3334 21.5814 18.5556 21.6762C19.8473 21.7845 19.6806 22.8273 19.5973 23.6668C19.2917 26.822 18.9167 29.9773 18.5278 33.322Z" fill="black"/>
<path d="M42.0278 21.9469C42.0278 21.9875 41.9722 22.5156 42.4583 22.4885C43.5556 22.4208 45.0278 22.1364 45.4306 22.2989C45.5556 22.326 45.5556 22.4208 45.6111 22.7323C45.6667 23.0437 44.6528 23.4094 44.125 23.5583C43.0417 23.8427 42.75 23.8969 42.2778 23.9781C41.7639 24.0729 41.7778 25.2781 41.8056 26.9844C41.7778 27.35 44.2917 26.8489 44.6111 27.1333C44.7361 27.3229 44.8333 28 44.4583 28.2979C44.0694 28.5958 43.125 28.7312 41.8472 28.7312C41.0417 28.7312 39.6528 28.7989 39.5694 27.4448C39.4167 24.7635 39.625 22.4208 40.4167 18.9C40.6667 18.2364 40.7222 18.1146 41.4306 17.9521C43.0556 17.6 45.8056 17.9656 46.0694 18.0739C46.2917 18.1552 46.1528 18.7646 45.875 18.8323C45.4167 18.9406 43.25 19.0083 42.6944 19.1437C42.0972 19.2521 42.2361 20.2271 42.0278 21.9469Z" fill="black"/>
<path d="M62.8056 15.5282C62.7083 15.7448 62 15.7855 61.8611 15.8667C61.625 18.9677 61.5139 21.9198 61.1389 24.8313C60.9861 26.0094 60.5695 26.3209 60.0695 26.3344C59.5695 26.3344 58.8889 26.348 58.8611 24.723C58.75 22.0959 58.8056 19.2386 58.8056 16.4219C58.5695 16.3542 57.5 16.5167 57.3889 16.2052C57.2917 15.9344 57.2639 15.5417 57.5695 15.3521C58.4445 15.0677 58.8333 15.0542 59.9583 15C60.9167 14.9594 61.6944 14.8375 62.6667 14.8646C62.875 14.8646 62.8056 15.3657 62.8056 15.5282Z" fill="black"/>
<path d="M54.3889 16.2051C55.2222 16.3676 54.8611 17.5999 54.8195 18.2906C54.6528 21.0801 54.4306 23.8697 54.1111 26.6458C54.0695 27.0656 53.7639 27.9187 53.0278 27.8104C52.1945 27.8239 52.1806 27.0114 52.1945 26.6322C52.3334 23.626 52.5556 20.6197 52.8472 17.627C52.9028 17.0853 52.9861 15.9614 53.75 16.0833C53.9584 16.1239 54.1806 16.1645 54.3889 16.2051Z" fill="black"/>
<path d="M66.3473 23.6533C66.3473 24.3033 65.9028 24.5741 64.9584 24.5606C64.7084 24.5606 64.0834 24.1408 64.0834 23.3689C64.0834 22.597 64.8195 22.3939 65.3473 22.3939C66.1667 22.3939 66.3473 23.0033 66.3473 23.6533Z" fill="black"/>
</svg>
