<svg width="79" height="54" viewBox="0 0 79 54" fill="none" xmlns="http://www.w3.org/2000/svg">
<path d="M36.1226 53.8301C26.495 53.6942 16.9167 53.513 7.289 53.3318C5.75845 53.2865 4.2279 53.2412 2.74672 53.1053C2.25299 53.06 1.75927 52.9694 1.26554 52.7882C0.771815 52.607 0.524952 52.2445 0.376834 51.7462C-0.0675193 50.206 -0.0181466 48.6204 0.031226 47.0348C0.179344 36.3435 0.67307 25.6976 1.36429 15.0063C1.61115 11.8352 1.95676 8.61871 2.35174 5.40227C2.45048 4.31502 2.79609 3.27307 2.99358 2.18582C3.09233 1.7328 3.43794 1.41569 3.88229 1.23448C4.42539 1.05327 5.01786 0.826762 5.61033 0.78146C7.93085 0.600252 10.2514 0.373742 12.5719 0.283138C20.0271 0.0566275 27.3837 -0.0339765 34.7896 0.0113255C41.7017 0.0566275 48.6139 0.192534 55.4767 0.32844C60.6114 0.419044 65.7462 0.55495 70.881 0.690856C72.7077 0.736158 74.5345 0.917366 76.3613 1.05327C76.5094 1.05327 76.7069 1.09857 76.855 1.09857C77.8919 1.23448 78.5831 1.7781 78.7806 2.72945C78.8793 3.18247 78.9287 3.63549 78.9781 4.13381C78.9781 5.40227 79.0274 6.67072 78.9781 7.93918C78.7806 13.7831 78.5337 19.6271 78.3362 25.4258C78.1387 32.0852 78.0894 38.6992 78.3362 45.3586C78.3856 46.5818 78.435 47.7597 78.3856 48.9828C78.3856 49.7982 78.2868 50.659 78.1881 51.4744C78.0894 52.4258 77.4969 53.0147 76.5094 53.2412C75.6701 53.4224 74.7814 53.6036 73.942 53.6489C71.424 53.7848 68.9554 53.9207 66.4374 53.966C62.7345 54.0113 58.9821 54.0113 55.2792 53.966C48.9101 53.9207 42.5411 53.7848 36.172 53.6942C36.1226 53.7848 36.1226 53.7848 36.1226 53.8301ZM56.9579 20.3972C56.6123 20.6237 56.3654 20.8503 56.0692 21.0768C51.5269 24.5197 46.9846 27.9627 42.3929 31.3603C41.6524 31.9039 40.7636 32.4023 39.9737 32.8553C39.6281 33.0818 39.1837 33.1724 38.7394 33.263C38.0975 33.3989 37.5544 33.2177 37.1101 32.7647C36.8138 32.4476 36.4682 32.1305 36.1226 31.8586C35.382 31.2697 34.5921 30.7261 33.9502 30.0466C30.7904 27.0566 27.3837 24.2932 23.9769 21.5751C23.7795 21.4392 23.6313 21.3033 23.4339 21.1674C23.2364 21.3033 23.0882 21.4392 22.9401 21.5298C21.3108 23.0247 19.484 24.3385 17.7066 25.6523C14.7443 27.8721 11.7819 30.0919 8.86893 32.357C7.48649 33.4442 6.2028 34.6674 4.47476 35.4375C4.27727 40.3301 3.98104 45.1321 3.33919 50.0248C3.78355 50.0248 4.12915 50.0248 4.52414 49.9795C7.43712 49.8888 10.3501 49.7982 13.2631 49.7982C19.9778 49.7529 26.6431 49.7982 33.3577 49.7982C38.9862 49.7982 44.6641 49.7982 50.2926 49.7982C54.8842 49.7982 59.4759 49.8888 64.1169 49.9341C67.2767 49.9794 70.486 49.8888 73.6458 50.1607C73.8433 50.1607 74.0408 50.1607 74.2383 50.1154C74.2877 49.9795 74.2877 49.8888 74.2877 49.7982C74.2383 46.8083 74.1395 43.7731 74.0902 40.7831C74.0408 39.4241 74.0408 38.065 74.0408 36.706C74.0408 36.2529 73.9421 35.9358 73.4977 35.664C73.0533 35.3922 72.7077 35.0298 72.3128 34.6674C70.3872 32.81 68.5604 30.9073 66.5855 29.1405C63.4257 26.1959 60.2165 23.3419 56.9579 20.3972ZM38.4925 29.2764C49.7495 20.9409 60.9077 12.6506 72.1646 4.31502C71.9671 4.26971 71.9178 4.22441 71.819 4.22441C66.9311 4.40562 62.0926 4.31502 57.2047 4.17911C55.3286 4.13381 53.5018 4.08851 51.6256 4.08851C40.8624 4.0432 30.0992 3.9526 19.3359 3.9073C16.6204 3.9073 13.9049 3.862 11.2388 3.862C10.6957 3.862 10.1032 3.81669 9.4614 3.9979C9.70826 4.22441 9.85638 4.40562 10.0539 4.58683C11.6832 6.03649 13.3125 7.48616 14.9418 8.93582C19.3853 12.9677 24.0263 16.7731 28.6673 20.5331C31.9753 23.206 35.1352 25.9694 38.1469 28.914C38.2456 29.0499 38.3938 29.1405 38.4925 29.2764ZM21.1133 19.31C15.7317 14.5986 10.3501 9.93247 5.46222 4.58683C5.46222 4.99455 5.41284 5.17576 5.41284 5.40227C5.3141 9.84186 5.21535 14.2815 5.06723 18.7211C4.96849 22.5264 4.771 26.3318 4.67225 30.1825C4.67225 30.4996 4.52414 30.862 4.82037 31.1338C10.2514 27.1472 15.6823 23.2513 21.1133 19.31ZM75.7688 4.94924C70.3872 9.66065 65.055 14.1003 59.5252 18.4945C59.7721 18.6758 59.9202 18.857 60.1177 18.9929C61.8951 20.3972 63.7713 21.8016 65.45 23.2966C68.0667 25.5617 70.5847 27.9174 73.1521 30.1825C73.399 30.409 73.5964 30.7261 74.0408 30.8167C74.2877 22.164 74.5839 13.6019 75.7688 4.94924Z" fill="black"/>
</svg>
