<svg width="53" height="52" viewBox="0 0 53 52" fill="none" xmlns="http://www.w3.org/2000/svg">
<path d="M26.5 0C34.7325 0 41.4062 6.54784 41.4062 14.625V17.875C41.4062 20.2837 40.8117 22.5567 39.7607 24.5599C42.7063 25.7538 44.9516 28.2961 45.6675 31.4569L47.9168 41.388C47.9929 41.7238 48.0312 42.0668 48.0312 42.4107V45.6607C48.0312 48.2643 45.88 50.375 43.2263 50.375H9.77367C7.11998 50.375 4.96875 48.2643 4.96875 45.6607V42.4107C4.96875 42.0668 5.00712 41.7238 5.08317 41.3881L7.33253 31.4569C8.04845 28.2961 10.2937 25.7538 13.2394 24.5599C12.1883 22.5567 11.5938 20.2837 11.5938 17.875V14.625C11.5938 6.54784 18.2675 0 26.5 0Z" fill="#4A5764"/>
<path d="M26.5 3.25C32.9031 3.25 38.0938 8.34276 38.0938 14.625V17.875C38.0938 21.4848 36.3799 24.7019 33.7071 26.7857L36.6982 27.1118C39.514 27.4187 41.8193 29.4485 42.4338 32.162L44.6832 42.0931C44.7068 42.1974 44.7188 42.3039 44.7188 42.4107V45.6607C44.7188 46.4694 44.0506 47.125 43.2263 47.125H9.77367C8.94943 47.125 8.28125 46.4694 8.28125 45.6607V42.4107C8.28125 42.3039 8.29317 42.1974 8.31679 42.0931L10.5661 32.162C11.1807 29.4485 13.486 27.4187 16.3018 27.1118L19.2929 26.7857C16.6201 24.7019 14.9062 21.4848 14.9062 17.875V14.625C14.9062 8.34276 20.0969 3.25 26.5 3.25Z" fill="#3B7DF7"/>
<path d="M16.3018 27.1118C13.486 27.4187 11.1807 29.4485 10.5661 32.162L8.31679 42.0931C8.29317 42.1974 8.28125 42.3039 8.28125 42.4107V45.6607C8.28125 46.4694 8.94943 47.125 9.77367 47.125H43.2263C44.0506 47.125 44.7188 46.4694 44.7188 45.6607V42.4107C44.7188 42.3039 44.7068 42.1974 44.6832 42.0931L42.4338 32.162C41.8193 29.4485 39.514 27.4187 36.6982 27.1118L26.5 26L16.3018 27.1118Z" fill="#7E8FA0"/>
<path d="M10.5661 32.162C11.1807 29.4485 13.486 27.4187 16.3018 27.1118L26.5 26L36.6982 27.1118C39.514 27.4187 41.8193 29.4485 42.4338 32.162L44.6832 42.0931C44.7068 42.1974 44.7188 42.3039 44.7188 42.4107C44.7188 43.2194 44.0506 43.875 43.2263 43.875H9.77367C8.94943 43.875 8.28125 43.2194 8.28125 42.4107C8.28125 42.3039 8.29317 42.1974 8.31679 42.0931L10.5661 32.162Z" fill="url(#paint0_linear_205_1384)"/>
<path d="M38.0938 14.625C38.0938 8.34276 32.9031 3.25 26.5 3.25C20.0969 3.25 14.9062 8.34276 14.9062 14.625V17.875C14.9062 24.1572 20.0969 29.25 26.5 29.25C32.9031 29.25 38.0938 24.1572 38.0938 17.875V14.625Z" fill="#3B7DF7"/>
<ellipse cx="26.5" cy="14.625" rx="11.5938" ry="11.375" fill="url(#paint1_linear_205_1384)"/>
<defs>
<linearGradient id="paint0_linear_205_1384" x1="26.5" y1="26" x2="26.5" y2="43.875" gradientUnits="userSpaceOnUse">
<stop stop-color="white"/>
<stop offset="1" stop-color="#E2E5E9"/>
</linearGradient>
<linearGradient id="paint1_linear_205_1384" x1="26.5" y1="3.25" x2="26.5" y2="26" gradientUnits="userSpaceOnUse">
<stop stop-color="#C6DBFF"/>
<stop offset="1" stop-color="#73A5FF"/>
</linearGradient>
</defs>
</svg>
