<svg width="175" height="149" viewBox="0 0 175 149" fill="none" xmlns="http://www.w3.org/2000/svg">
<path d="M126.693 51.7344C141.61 51.1649 147.14 59.251 148.993 67.8212C149.692 71.0385 150.451 74.2559 150.694 77.5017C151.181 83.6802 151.971 89.8587 150.36 96.0941C148.021 105.12 141.306 111.014 131.402 111.697C124.536 112.181 82.7604 112.636 68.7544 112.722C60.5512 112.779 52.3177 112.779 44.1146 112.864C40.4384 112.893 36.9141 112.551 33.5113 111.099C28.316 108.878 25.3993 105.091 24.7309 99.8809C24.1841 95.7239 23.7283 91.567 23.6979 87.3816C23.6676 81.7441 23.6068 76.0212 24.3967 70.4406C25.9158 59.4788 30.9592 55.0371 42.3525 52.4177C49.9176 50.7094 85.0087 51.2219 88.9887 51.2219C89.0191 51.3642 114.145 51.535 126.693 51.7344ZM70.9419 78.9253C72.9775 78.783 71.5799 84.7337 71.5495 87.5239C71.5191 88.8621 71.428 90.2288 71.6103 91.567C71.7926 92.9337 72.6736 93.9017 74.2231 93.9302C75.8334 93.9302 76.6537 92.7913 76.7752 91.51C76.9879 89.2607 77.1094 86.983 76.9271 84.7337C76.7448 82.7406 76.3195 80.6906 75.5903 78.8114C74.4358 75.9642 72.3394 75.2524 69.2709 76.2774C68.7544 76.4482 68.2075 76.5906 67.4783 76.8184C67.4783 74.9107 67.5087 73.2309 67.4783 71.551C67.4783 70.6399 67.6606 69.6149 67.2657 68.8746C66.7795 67.992 65.8377 67.0809 64.8655 66.7677C63.5287 66.3121 62.5565 67.2517 62.1615 68.4475C61.8577 69.3017 61.7361 70.2128 61.6754 71.0955C61.25 77.5302 60.8551 83.9934 60.4905 90.4281C60.4297 91.3107 60.6424 92.2788 60.8247 93.076C61.1589 94.3857 62.283 94.7559 63.1033 94.8128C63.8933 94.8698 65.0174 94.0725 65.5339 93.3607C66.0504 92.7059 66.0808 91.6524 66.1719 90.7698C66.4453 88.2927 66.658 85.8156 66.8707 83.3385C67.053 81.0323 68.0252 79.4378 70.9419 78.9253ZM46.2414 96.4073C52.0139 95.8948 55.3559 92.3642 54.4749 87.41C53.928 84.2212 51.7405 82.4559 47.3959 81.7156C44.0842 81.1462 43.0209 79.0107 45.0261 76.4482C45.9071 75.3094 47.244 74.3413 48.5808 73.6864C49.8264 73.117 51.4063 73.2309 52.7431 72.7753C53.6545 72.4621 54.8698 71.7503 55.0217 71.067C55.1736 70.3552 55.0521 69.3302 53.6242 68.6753C52.1962 68.0205 50.3733 67.6788 48.7934 67.8496C43.8108 68.3621 39.8915 72.1205 38.9497 76.9323C38.1294 81.1177 40.5295 84.3066 44.9957 84.9614C45.9375 85.1038 46.9705 85.0184 47.8516 85.1607C49.2492 85.417 49.8264 86.1288 50.0999 86.8691C50.5252 88.0934 50.0391 89.46 48.4896 89.8302C47.244 90.1434 45.8768 90.2857 44.6007 90.1718C43.1728 90.058 41.7752 89.5739 40.3776 89.2892C39.1016 89.033 37.9167 89.2323 37.2787 90.4566C36.5495 91.8802 37.0964 92.4781 37.8256 93.5885C38.6155 94.8128 41.5321 96.4073 46.2414 96.4073ZM120.768 83.2816C124.809 83.3385 128.303 82.7406 130.521 81.8295C133.012 80.8045 134.319 79.3239 133.377 76.9892C132.921 75.8788 132.07 74.7968 131.098 74.0281C126.541 70.4406 119.978 71.7503 116.484 76.8184C113.598 81.0038 114.297 85.36 118.307 88.2357C122.044 90.9121 128.607 90.3712 131.554 87.1253C131.797 86.8691 132.01 86.5843 132.161 86.2996C132.8 84.9899 132.04 83.9649 130.551 84.2212C129.397 84.4489 128.303 85.0184 127.118 85.2462C124.688 85.7587 121.224 85.5309 120.768 83.2816ZM90.8117 80.1781C89.7179 80.235 88.8672 80.292 88.0469 80.3205C84.4618 80.4913 81.9401 82.1996 80.3299 85.1323C79.4184 86.8121 79.145 88.6059 80.421 90.2573C81.6971 91.9087 83.4592 92.9052 85.6771 92.592C87.0747 92.3927 89.9914 91.2823 90.7509 91.0545C90.9332 93.1899 92.27 93.3323 93.4245 93.1614C95.1867 92.8767 95.1563 90.9691 95.2778 89.517C95.4601 87.2677 95.7639 85.0184 95.7335 82.7691C95.7032 80.235 94.974 77.8434 93.1511 75.9073C90.8724 73.4871 87.7735 72.8607 84.6137 74.1135C83.8542 74.3982 82.3047 75.4802 83.2162 76.733C83.7934 77.5871 85.4037 76.5906 87.3481 76.7045C90.0217 76.8469 90.5078 78.1566 90.8117 80.1781ZM106.063 72.9462C105.577 72.5475 105.76 71.8073 104.818 71.551C102.539 70.9531 101.445 71.7219 101.111 74.5121C100.564 79.21 100.473 83.9649 100.23 88.6913C100.2 89.033 100.26 89.3746 100.352 89.6878C100.716 90.9691 101.324 92.051 102.995 91.9941C104.635 91.9087 105.243 90.8552 105.365 89.4885C105.547 87.3531 105.79 85.2177 105.82 83.0823C105.881 79.0677 107.157 76.0496 111.988 75.2524C112.747 75.1385 114.418 75.0246 113.993 73.2309C114.054 72.0066 112.109 71.6934 111.198 71.7219C109.618 71.7788 108.008 72.4337 106.063 72.9462Z" fill="#828AFF"/>
<path d="M129.761 78.2994C129.761 78.6695 126.024 78.7834 124.87 78.7834C123.533 78.7834 122.135 78.755 122.135 78.2994C122.53 77.3029 123.381 76.107 125.812 76.0501C127.787 75.9931 129.275 76.8758 129.761 78.2994Z" fill="#828AFF"/>
<path d="M83.1554 88.3781C82.7604 86.983 83.3681 86.1288 84.6137 85.417C86.6493 84.2496 88.5634 83.908 90.7509 83.7941C89.809 86.442 88.5938 88.5489 86.0113 89.46C85.3733 89.6878 83.7327 89.7732 83.1554 88.3781Z" fill="#828AFF"/>
</svg>
