<svg width="88" height="90" viewBox="0 0 88 90" fill="none" xmlns="http://www.w3.org/2000/svg">
<path d="M45.2681 44.3593C45.0847 43.6093 44.9778 42.9999 44.7792 42.4062C42.7931 36.4062 39.6 31.0624 35.9639 25.9843C35.5361 25.3905 35.0014 24.828 34.4056 24.453C34.0847 24.2499 33.4431 24.2812 33.0764 24.4843C32.8014 24.6405 32.6028 25.2499 32.6639 25.5937C32.7708 26.2499 33 26.9218 33.3208 27.5155C35.4292 31.4374 37.5528 35.3437 39.707 39.2343C40.5167 40.6874 41.3722 42.1249 42.2125 43.5624C42.4875 44.0468 42.7931 44.5156 43.1139 44.9531C43.4653 45.4531 44 45.7499 44.5347 45.4218C44.8861 45.2031 45.2681 45.0468 45.2681 44.3593Z" fill="#FFFB00"/>
<path d="M23.6349 67.6254C24.3682 67.5004 25.2238 67.4066 26.0488 67.2191C29.3029 66.4691 32.5571 65.7191 35.796 64.9379C36.4988 64.766 37.1863 64.4691 37.8127 64.1254C38.6529 63.6723 38.9432 63.0316 38.8057 62.3285C38.6682 61.6254 38.1182 61.1879 37.1557 61.1723C36.4988 61.1566 35.796 61.1723 35.1696 61.3285C31.0599 62.391 26.9502 63.4847 22.8557 64.5941C22.3974 64.7191 21.9238 64.9379 21.5724 65.2504C20.6863 66.016 20.9613 67.2191 22.0918 67.516C22.5349 67.6254 23.0391 67.5785 23.6349 67.6254Z" fill="#FFFB00"/>
<path d="M66.5652 25.734C66.5041 24.9997 66.3513 24.2653 66.168 23.5465C65.9999 22.9059 65.5721 22.4528 64.8846 22.3903C64.3041 22.3434 63.6777 22.9372 63.586 23.7184C63.4638 24.7653 63.3569 25.8278 63.4027 26.8747C63.5402 30.0309 63.7388 33.2028 63.9527 36.359C64.0291 37.4059 64.1666 38.4528 64.3346 39.4997C64.3958 39.859 64.518 40.234 64.7166 40.5153C65.2513 41.3122 66.2291 41.2497 66.611 40.3903C66.8249 39.9059 66.9166 39.3122 66.9166 38.7809C66.993 37.0309 66.7638 28.3278 66.5652 25.734Z" fill="#FFFB00"/>
</svg>
