<svg width="84" height="84" viewBox="0 0 84 84" fill="none" xmlns="http://www.w3.org/2000/svg">
<path d="M37.6541 60.7106C30.4354 67.2294 22.0062 72.0564 13.8687 77.321C13.0229 77.8752 11.9875 78.3127 10.9958 78.444C9.33331 78.6773 8.18123 77.146 8.80831 75.6294C10.0916 72.4794 11.2291 69.2419 12.8187 66.2523C16.2896 59.6898 19.9646 53.2294 23.6541 46.7981C24.2521 45.7481 24.1937 45.1648 23.45 44.246C18.025 37.596 12.6437 30.8877 7.27706 24.1794C6.75206 23.5231 6.27081 22.7064 6.13956 21.9044C5.92081 20.5773 6.94165 19.7752 8.66248 19.7898C14.2333 19.8189 19.8041 20.0085 25.375 19.9064C30.3625 19.8044 35.35 19.4398 40.3229 19.0898C40.9646 19.046 41.7958 18.6377 42.1458 18.1273C44.7854 14.3794 47.2937 10.5439 49.9479 6.81061C50.4 6.16894 51.5958 5.38144 52.0333 5.58561C52.7333 5.90644 53.4916 6.97102 53.5208 7.75852C53.6812 10.9377 53.5937 14.1314 53.5937 17.5439C55.8687 17.3544 57.8666 17.2231 59.8646 17.0335C64.6625 16.596 69.4458 16.0856 74.2437 15.721C75.3083 15.6481 76.7666 15.7064 77.3937 16.3481C78.4437 17.4273 77.4958 18.7689 76.7812 19.8044C71.7062 27.1252 65.9166 33.8481 59.675 40.1919C58.0562 41.8398 55.8687 43.3273 55.1541 45.3252C54.4541 47.2648 55.3291 49.7731 55.5041 52.0335C55.9854 58.2314 56.4812 64.4148 56.9041 70.6127C56.9916 71.8085 57.0646 73.1502 56.6271 74.2148C56.2771 75.0606 55.1541 75.9794 54.3375 76.1252C52.3687 76.446 40.9646 63.4814 37.6541 60.7106ZM48.65 22.8814C46.5208 23.1002 44.625 23.246 42.7291 23.5231C42.2333 23.596 41.6208 23.9606 41.3729 24.3835C37.6979 30.6252 34.0521 36.896 30.45 43.1669C30.2458 43.5314 30.1875 44.2606 30.4062 44.5377C33.0312 47.8189 35.7291 51.0419 38.5291 54.4106C41.9416 51.4356 45.2083 48.6648 48.3729 45.7773C48.7958 45.3981 48.9562 44.5523 48.9562 43.9252C48.9125 41.0231 48.6937 38.1356 48.65 35.2335C48.6062 31.2085 48.65 27.1544 48.65 22.8814ZM12.8771 23.7273C17.7333 29.4585 22.5021 35.0877 27.4458 40.921C31.1791 35.2189 34.8396 29.6189 38.6896 23.7273C29.8375 23.7273 21.4375 23.7273 12.8771 23.7273ZM73.8062 18.9439C73.6604 18.7106 60.3312 20.7231 53.5937 22.021C53.8854 27.9564 54.1771 33.7314 54.4687 39.5064C54.6875 39.5794 67.5791 25.871 73.8062 18.9439ZM34.8396 57.4731C32.2291 54.4981 29.8666 51.8148 27.3583 48.9419C23.9021 55.5773 17.3541 68.571 17.4416 68.6439C23.1729 64.9689 28.9041 61.2794 34.8396 57.4731ZM50.9687 67.2148C51.1291 67.0981 49.8312 55.7231 49.35 50.1669C46.5062 52.7919 43.9541 55.1398 41.7375 57.1814C44.6104 60.3314 48.1541 64.0939 50.9687 67.2148ZM45.0771 18.5939C46.6521 18.4189 47.775 18.3023 48.9854 18.171C49.1458 16.3044 49.2771 14.5835 49.4229 12.8627C49.2916 12.8335 49.1604 12.7898 49.0437 12.7606C47.8041 14.5835 46.5646 16.4064 45.0771 18.5939Z" fill="#FFE600"/>
</svg>
